solid exported
	facet normal 0 0 1
		outer loop
			vertex 0.012450000271201134 0.0020000000949949026 -0.004100000020116568
			vertex 0.015949999913573265 0 -0.004100000020116568
			vertex 0.015949999913573265 0.014399999752640724 -0.004100000020116568
		endloop
	endfacet
	facet normal 0 0 1
		outer loop
			vertex 0.012450000271201134 0.0020000000949949026 -0.004100000020116568
			vertex 0.015949999913573265 0.014399999752640724 -0.004100000020116568
			vertex 0.012450000271201134 0.014399999752640724 -0.004100000020116568
		endloop
	endfacet
	facet normal 0 0 1
		outer loop
			vertex 0.01145000010728836 0 -0.004100000020116568
			vertex 0.012450000271201134 0.0020000000949949026 -0.004100000020116568
			vertex 0.01145000010728836 0.0020000000949949026 -0.004100000020116568
		endloop
	endfacet
	facet normal 0 0 1
		outer loop
			vertex 0.01145000010728836 0 -0.004100000020116568
			vertex 0.015949999913573265 0 -0.004100000020116568
			vertex 0.012450000271201134 0.0020000000949949026 -0.004100000020116568
		endloop
	endfacet
	facet normal 0 1 0
		outer loop
			vertex -0.015949999913573265 0 -0.003909475170075893
			vertex -0.01145000010728836 0 0.0019000000320374966
			vertex -0.01145000010728836 0 -0.004100000020116568
		endloop
	endfacet
	facet normal 0 1 0
		outer loop
			vertex -0.015949664637446404 0 -0.003972992766648531
			vertex -0.015949999913573265 0 -0.003909475170075893
			vertex -0.01145000010728836 0 -0.004100000020116568
		endloop
	endfacet
	facet normal 0 1 0
		outer loop
			vertex -0.01594865508377552 0 -0.004036503378301859
			vertex -0.015949664637446404 0 -0.003972992766648531
			vertex -0.01145000010728836 0 -0.004100000020116568
		endloop
	endfacet
	facet normal 0 1 0
		outer loop
			vertex -0.015946974977850914 0 -0.004100000020116568
			vertex -0.01594865508377552 0 -0.004036503378301859
			vertex -0.01145000010728836 0 -0.004100000020116568
		endloop
	endfacet
	facet normal 0 1 0
		outer loop
			vertex -0.01591670885682106 0 -0.0045406511053442955
			vertex -0.015949999913573265 0 -0.004100000020116568
			vertex -0.015946974977850914 0 -0.004100000020116568
		endloop
	endfacet
	facet normal 0 0 -1
		outer loop
			vertex 0.010449999943375587 -0.0020000000949949026 0.010499999858438969
			vertex -0.010449999943375587 0.0020000000949949026 0.010499999858438969
			vertex 0.010449999943375587 0.0020000000949949026 0.010499999858438969
		endloop
	endfacet
	facet normal 0 0 -1
		outer loop
			vertex 0.010449999943375587 -0.0020000000949949026 0.010499999858438969
			vertex -0.010449999943375587 -0.0020000000949949026 0.010499999858438969
			vertex -0.010449999943375587 0.0020000000949949026 0.010499999858438969
		endloop
	endfacet
	facet normal 1 0 0
		outer loop
			vertex -0.01145000010728836 0 -0.004100000020116568
			vertex -0.01145000010728836 0.0020000000949949026 -0.008999999612569809
			vertex -0.01145000010728836 0.0020000000949949026 -0.004100000020116568
		endloop
	endfacet
	facet normal 1 0 0
		outer loop
			vertex -0.01145000010728836 0 -0.004100000020116568
			vertex -0.01145000010728836 -0.0020000000949949026 -0.008999999612569809
			vertex -0.01145000010728836 0.0020000000949949026 -0.008999999612569809
		endloop
	endfacet
	facet normal 1 0 0
		outer loop
			vertex -0.01145000010728836 0.0020000000949949026 0.009499999694526196
			vertex -0.01145000010728836 0 0.0019000000320374966
			vertex -0.01145000010728836 0.0020000000949949026 0.0019000000320374966
		endloop
	endfacet
	facet normal 1 0 0
		outer loop
			vertex -0.01145000010728836 -0.0020000000949949026 0.009499999694526196
			vertex -0.01145000010728836 0 0.0019000000320374966
			vertex -0.01145000010728836 0.0020000000949949026 0.009499999694526196
		endloop
	endfacet
	facet normal 1 0 0
		outer loop
			vertex -0.01145000010728836 -0.0020000000949949026 0.009499999694526196
			vertex -0.01145000010728836 -0.0020000000949949026 -0.008999999612569809
			vertex -0.01145000010728836 0 -0.004100000020116568
		endloop
	endfacet
	facet normal 1 0 0
		outer loop
			vertex -0.01145000010728836 -0.0020000000949949026 0.009499999694526196
			vertex -0.01145000010728836 0 -0.004100000020116568
			vertex -0.01145000010728836 0 0.0019000000320374966
		endloop
	endfacet
	facet normal -1 0 0
		outer loop
			vertex 0.01145000010728836 0 0.0019000000320374966
			vertex 0.01145000010728836 -0.0020000000949949026 0.009499999694526196
			vertex 0.01145000010728836 0.0020000000949949026 0.009499999694526196
		endloop
	endfacet
	facet normal -1 0 0
		outer loop
			vertex 0.01145000010728836 0 0.0019000000320374966
			vertex 0.01145000010728836 0.0020000000949949026 0.009499999694526196
			vertex 0.01145000010728836 0.0020000000949949026 0.0019000000320374966
		endloop
	endfacet
	facet normal -1 0 0
		outer loop
			vertex 0.01145000010728836 0.0020000000949949026 -0.008999999612569809
			vertex 0.01145000010728836 0 -0.004100000020116568
			vertex 0.01145000010728836 0.0020000000949949026 -0.004100000020116568
		endloop
	endfacet
	facet normal -1 0 0
		outer loop
			vertex 0.01145000010728836 -0.0020000000949949026 -0.008999999612569809
			vertex 0.01145000010728836 0 -0.004100000020116568
			vertex 0.01145000010728836 0.0020000000949949026 -0.008999999612569809
		endloop
	endfacet
	facet normal -1 0 0
		outer loop
			vertex 0.01145000010728836 -0.0020000000949949026 -0.008999999612569809
			vertex 0.01145000010728836 -0.0020000000949949026 0.009499999694526196
			vertex 0.01145000010728836 0 0.0019000000320374966
		endloop
	endfacet
	facet normal -1 0 0
		outer loop
			vertex 0.01145000010728836 -0.0020000000949949026 -0.008999999612569809
			vertex 0.01145000010728836 0 0.0019000000320374966
			vertex 0.01145000010728836 0 -0.004100000020116568
		endloop
	endfacet
	facet normal 0 1 0
		outer loop
			vertex 0.01145000010728836 0.0020000000949949026 0.009499999694526196
			vertex 0.010449999943375587 0.0020000000949949026 0.010499999858438969
			vertex 0.010548016987740993 0.0020000000949949026 0.010495184920728207
		endloop
	endfacet
	facet normal 0 1 0
		outer loop
			vertex 0.01145000010728836 0.0020000000949949026 0.009499999694526196
			vertex 0.011430785059928894 0.0020000000949949026 0.009695090353488922
			vertex 0.011445185169577599 0.0020000000949949026 0.009598016738891602
		endloop
	endfacet
	facet normal 0 1 0
		outer loop
			vertex 0.01145000010728836 0.0020000000949949026 0.009499999694526196
			vertex 0.011406940408051014 0.0020000000949949026 0.009790284559130669
			vertex 0.011430785059928894 0.0020000000949949026 0.009695090353488922
		endloop
	endfacet
	facet normal 0 1 0
		outer loop
			vertex 0.01145000010728836 0.0020000000949949026 0.009499999694526196
			vertex 0.011373879387974739 0.0020000000949949026 0.009882683865725994
			vertex 0.011406940408051014 0.0020000000949949026 0.009790284559130669
		endloop
	endfacet
	facet normal 0 1 0
		outer loop
			vertex 0.01145000010728836 0.0020000000949949026 0.009499999694526196
			vertex 0.011331921443343163 0.0020000000949949026 0.009971396997570992
			vertex 0.011373879387974739 0.0020000000949949026 0.009882683865725994
		endloop
	endfacet
	facet normal 0 1 0
		outer loop
			vertex 0.01145000010728836 0.0020000000949949026 0.009499999694526196
			vertex 0.011281469836831093 0.0020000000949949026 0.010055569931864738
			vertex 0.011331921443343163 0.0020000000949949026 0.009971396997570992
		endloop
	endfacet
	facet normal 0 1 0
		outer loop
			vertex 0.01145000010728836 0.0020000000949949026 0.009499999694526196
			vertex 0.01122301071882248 0.0020000000949949026 0.010134393349289894
			vertex 0.011281469836831093 0.0020000000949949026 0.010055569931864738
		endloop
	endfacet
	facet normal 0 1 0
		outer loop
			vertex 0.01145000010728836 0.0020000000949949026 0.009499999694526196
			vertex 0.01115710660815239 0.0020000000949949026 0.010207106359302998
			vertex 0.01122301071882248 0.0020000000949949026 0.010134393349289894
		endloop
	endfacet
	facet normal 0 1 0
		outer loop
			vertex 0.01145000010728836 0.0020000000949949026 0.009499999694526196
			vertex 0.011084393598139286 0.0020000000949949026 0.010273010469973087
			vertex 0.01115710660815239 0.0020000000949949026 0.010207106359302998
		endloop
	endfacet
	facet normal 0 1 0
		outer loop
			vertex 0.01145000010728836 0.0020000000949949026 0.009499999694526196
			vertex 0.01100557018071413 0.0020000000949949026 0.010331469587981701
			vertex 0.011084393598139286 0.0020000000949949026 0.010273010469973087
		endloop
	endfacet
	facet normal 0 1 0
		outer loop
			vertex 0.01145000010728836 0.0020000000949949026 0.009499999694526196
			vertex 0.010921396315097809 0.0020000000949949026 0.01038192119449377
			vertex 0.01100557018071413 0.0020000000949949026 0.010331469587981701
		endloop
	endfacet
	facet normal 0 1 0
		outer loop
			vertex 0.01145000010728836 0.0020000000949949026 0.009499999694526196
			vertex 0.010832683183252811 0.0020000000949949026 0.010423879139125347
			vertex 0.010921396315097809 0.0020000000949949026 0.01038192119449377
		endloop
	endfacet
	facet normal 0 1 0
		outer loop
			vertex 0.01145000010728836 0.0020000000949949026 0.009499999694526196
			vertex 0.01074028480798006 0.0020000000949949026 0.010456940159201622
			vertex 0.010832683183252811 0.0020000000949949026 0.010423879139125347
		endloop
	endfacet
	facet normal 0 1 0
		outer loop
			vertex 0.01145000010728836 0.0020000000949949026 0.009499999694526196
			vertex 0.010645090602338314 0.0020000000949949026 0.010480785742402077
			vertex 0.01074028480798006 0.0020000000949949026 0.010456940159201622
		endloop
	endfacet
	facet normal 0 1 0
		outer loop
			vertex 0.01145000010728836 0.0020000000949949026 0.009499999694526196
			vertex 0.010548016987740993 0.0020000000949949026 0.010495184920728207
			vertex 0.010645090602338314 0.0020000000949949026 0.010480785742402077
		endloop
	endfacet
	facet normal 0 1 0
		outer loop
			vertex 0.01145000010728836 0.0020000000949949026 0.0019000000320374966
			vertex 0.010449999943375587 0.0020000000949949026 0.010499999858438969
			vertex 0.01145000010728836 0.0020000000949949026 0.009499999694526196
		endloop
	endfacet
	facet normal 0 1 0
		outer loop
			vertex 0.012450000271201134 0.0020000000949949026 -0.004100000020116568
			vertex 0.012645089998841286 0.0020000000949949026 -0.004080785438418388
			vertex 0.01254801731556654 0.0020000000949949026 -0.004095184616744518
		endloop
	endfacet
	facet normal 0 1 0
		outer loop
			vertex 0.012450000271201134 0.0020000000949949026 -0.004100000020116568
			vertex 0.012740285135805607 0.0020000000949949026 -0.004056940320879221
			vertex 0.012645089998841286 0.0020000000949949026 -0.004080785438418388
		endloop
	endfacet
	facet normal 0 1 0
		outer loop
			vertex 0.01145000010728836 0.0020000000949949026 -0.003100000089034438
			vertex 0.012832683511078358 0.0020000000949949026 -0.004023879300802946
			vertex 0.012740285135805607 0.0020000000949949026 -0.004056940320879221
		endloop
	endfacet
	facet normal 0 1 0
		outer loop
			vertex 0.01145000010728836 0.0020000000949949026 -0.003100000089034438
			vertex 0.012921396642923355 0.0020000000949949026 -0.0039819213561713696
			vertex 0.012832683511078358 0.0020000000949949026 -0.004023879300802946
		endloop
	endfacet
	facet normal 0 1 0
		outer loop
			vertex 0.01145000010728836 0.0020000000949949026 -0.003100000089034438
			vertex 0.013005570508539677 0.0020000000949949026 -0.0039314697496593
			vertex 0.012921396642923355 0.0020000000949949026 -0.0039819213561713696
		endloop
	endfacet
	facet normal 0 1 0
		outer loop
			vertex 0.01145000010728836 0.0020000000949949026 -0.003100000089034438
			vertex 0.013084392994642258 0.0020000000949949026 -0.0038730103988200426
			vertex 0.013005570508539677 0.0020000000949949026 -0.0039314697496593
		endloop
	endfacet
	facet normal 0 1 0
		outer loop
			vertex 0.01145000010728836 0.0020000000949949026 -0.003100000089034438
			vertex 0.013157106935977936 0.0020000000949949026 -0.00380710675381124
			vertex 0.013084392994642258 0.0020000000949949026 -0.0038730103988200426
		endloop
	endfacet
	facet normal 0 1 0
		outer loop
			vertex 0.01145000010728836 0.0020000000949949026 -0.003100000089034438
			vertex 0.013223010115325451 0.0020000000949949026 -0.0037343932781368494
			vertex 0.013157106935977936 0.0020000000949949026 -0.00380710675381124
		endloop
	endfacet
	facet normal 0 1 0
		outer loop
			vertex 0.01145000010728836 0.0020000000949949026 -0.003100000089034438
			vertex 0.013281469233334064 0.0020000000949949026 -0.003655570326372981
			vertex 0.013223010115325451 0.0020000000949949026 -0.0037343932781368494
		endloop
	endfacet
	facet normal 0 1 0
		outer loop
			vertex 0.01145000010728836 0.0020000000949949026 -0.003100000089034438
			vertex 0.013331920839846134 0.0020000000949949026 -0.003571396693587303
			vertex 0.013281469233334064 0.0020000000949949026 -0.003655570326372981
		endloop
	endfacet
	facet normal 0 1 0
		outer loop
			vertex 0.01145000010728836 0.0020000000949949026 -0.003100000089034438
			vertex 0.013373879715800285 0.0020000000949949026 -0.003482683328911662
			vertex 0.013331920839846134 0.0020000000949949026 -0.003571396693587303
		endloop
	endfacet
	facet normal 0 1 0
		outer loop
			vertex 0.01145000010728836 0.0020000000949949026 -0.003100000089034438
			vertex 0.01340694073587656 0.0020000000949949026 -0.0033902847208082676
			vertex 0.013373879715800285 0.0020000000949949026 -0.003482683328911662
		endloop
	endfacet
	facet normal 0 1 0
		outer loop
			vertex 0.01145000010728836 0.0020000000949949026 -0.003100000089034438
			vertex 0.01343078538775444 0.0020000000949949026 -0.0032950902823358774
			vertex 0.01340694073587656 0.0020000000949949026 -0.0033902847208082676
		endloop
	endfacet
	facet normal 0 1 0
		outer loop
			vertex 0.01145000010728836 0.0020000000949949026 -0.003100000089034438
			vertex 0.01344518456608057 0.0020000000949949026 -0.003198017133399844
			vertex 0.01343078538775444 0.0020000000949949026 -0.0032950902823358774
		endloop
	endfacet
	facet normal 0 1 0
		outer loop
			vertex 0.01145000010728836 0.0020000000949949026 -0.003100000089034438
			vertex 0.013450000435113907 0.0020000000949949026 -0.003100000089034438
			vertex 0.01344518456608057 0.0020000000949949026 -0.003198017133399844
		endloop
	endfacet
	facet normal 0 1 0
		outer loop
			vertex 0.01145000010728836 0.0020000000949949026 -0.003100000089034438
			vertex 0.01344518456608057 0.0020000000949949026 -0.0030019828118383884
			vertex 0.013450000435113907 0.0020000000949949026 -0.003100000089034438
		endloop
	endfacet
	facet normal 0 1 0
		outer loop
			vertex 0.01145000010728836 0.0020000000949949026 -0.003100000089034438
			vertex 0.01343078538775444 0.0020000000949949026 -0.002904909662902355
			vertex 0.01344518456608057 0.0020000000949949026 -0.0030019828118383884
		endloop
	endfacet
	facet normal 0 1 0
		outer loop
			vertex 0.01145000010728836 0.0020000000949949026 -0.003100000089034438
			vertex 0.01340694073587656 0.0020000000949949026 -0.002809715224429965
			vertex 0.01343078538775444 0.0020000000949949026 -0.002904909662902355
		endloop
	endfacet
	facet normal 0 1 0
		outer loop
			vertex 0.01145000010728836 0.0020000000949949026 -0.003100000089034438
			vertex 0.013373879715800285 0.0020000000949949026 -0.0027173166163265705
			vertex 0.01340694073587656 0.0020000000949949026 -0.002809715224429965
		endloop
	endfacet
	facet normal 0 1 0
		outer loop
			vertex 0.01145000010728836 0.0020000000949949026 -0.003100000089034438
			vertex 0.013331920839846134 0.0020000000949949026 -0.0026286032516509295
			vertex 0.013373879715800285 0.0020000000949949026 -0.0027173166163265705
		endloop
	endfacet
	facet normal 0 1 0
		outer loop
			vertex 0.01145000010728836 0.0020000000949949026 -0.003100000089034438
			vertex 0.013281469233334064 0.0020000000949949026 -0.002544429851695895
			vertex 0.013331920839846134 0.0020000000949949026 -0.0026286032516509295
		endloop
	endfacet
	facet normal 0 1 0
		outer loop
			vertex 0.01145000010728836 0.0020000000949949026 -0.003100000089034438
			vertex 0.013223010115325451 0.0020000000949949026 -0.002465606667101383
			vertex 0.013281469233334064 0.0020000000949949026 -0.002544429851695895
		endloop
	endfacet
	facet normal 0 1 0
		outer loop
			vertex 0.01145000010728836 0.0020000000949949026 -0.003100000089034438
			vertex 0.013157106935977936 0.0020000000949949026 -0.0023928931914269924
			vertex 0.013223010115325451 0.0020000000949949026 -0.002465606667101383
		endloop
	endfacet
	facet normal 0 1 0
		outer loop
			vertex 0.01145000010728836 0.0020000000949949026 -0.003100000089034438
			vertex 0.013084392994642258 0.0020000000949949026 -0.00232698954641819
			vertex 0.013157106935977936 0.0020000000949949026 -0.0023928931914269924
		endloop
	endfacet
	facet normal 0 1 0
		outer loop
			vertex 0.01145000010728836 0.0020000000949949026 -0.003100000089034438
			vertex 0.013005570508539677 0.0020000000949949026 -0.0022685304284095764
			vertex 0.013084392994642258 0.0020000000949949026 -0.00232698954641819
		endloop
	endfacet
	facet normal 0 1 0
		outer loop
			vertex 0.01145000010728836 0.0020000000949949026 -0.003100000089034438
			vertex 0.012921396642923355 0.0020000000949949026 -0.0022180788218975067
			vertex 0.013005570508539677 0.0020000000949949026 -0.0022685304284095764
		endloop
	endfacet
	facet normal 0 1 0
		outer loop
			vertex 0.01145000010728836 0.0020000000949949026 -0.003100000089034438
			vertex 0.012832683511078358 0.0020000000949949026 -0.002176120411604643
			vertex 0.012921396642923355 0.0020000000949949026 -0.0022180788218975067
		endloop
	endfacet
	facet normal 0 1 0
		outer loop
			vertex 0.01145000010728836 0.0020000000949949026 -0.003100000089034438
			vertex 0.012740285135805607 0.0020000000949949026 -0.0021430596243590117
			vertex 0.012832683511078358 0.0020000000949949026 -0.002176120411604643
		endloop
	endfacet
	facet normal 0 1 0
		outer loop
			vertex 0.01145000010728836 0.0020000000949949026 -0.003100000089034438
			vertex 0.012645089998841286 0.0020000000949949026 -0.002119214739650488
			vertex 0.012740285135805607 0.0020000000949949026 -0.0021430596243590117
		endloop
	endfacet
	facet normal 0 1 0
		outer loop
			vertex 0.01145000010728836 0.0020000000949949026 -0.003100000089034438
			vertex 0.01254801731556654 0.0020000000949949026 -0.0021048153284937143
			vertex 0.012645089998841286 0.0020000000949949026 -0.002119214739650488
		endloop
	endfacet
	facet normal 0 1 0
		outer loop
			vertex 0.01145000010728836 0.0020000000949949026 -0.003100000089034438
			vertex 0.012450000271201134 0.0020000000949949026 -0.002099999925121665
			vertex 0.01254801731556654 0.0020000000949949026 -0.0021048153284937143
		endloop
	endfacet
	facet normal 0 1 0
		outer loop
			vertex 0.01145000010728836 0.0020000000949949026 -0.003100000089034438
			vertex 0.012351983226835728 0.0020000000949949026 -0.0021048153284937143
			vertex 0.012450000271201134 0.0020000000949949026 -0.002099999925121665
		endloop
	endfacet
	facet normal 0 1 0
		outer loop
			vertex 0.01145000010728836 0.0020000000949949026 -0.003100000089034438
			vertex 0.012254909612238407 0.0020000000949949026 -0.002119214739650488
			vertex 0.012351983226835728 0.0020000000949949026 -0.0021048153284937143
		endloop
	endfacet
	facet normal 0 1 0
		outer loop
			vertex 0.01145000010728836 0.0020000000949949026 -0.003100000089034438
			vertex 0.01215971540659666 0.0020000000949949026 -0.0021430596243590117
			vertex 0.012254909612238407 0.0020000000949949026 -0.002119214739650488
		endloop
	endfacet
	facet normal 0 1 0
		outer loop
			vertex 0.01145000010728836 0.0020000000949949026 -0.003100000089034438
			vertex 0.01206731703132391 0.0020000000949949026 -0.002176120411604643
			vertex 0.01215971540659666 0.0020000000949949026 -0.0021430596243590117
		endloop
	endfacet
	facet normal 0 1 0
		outer loop
			vertex 0.01145000010728836 0.0020000000949949026 -0.003100000089034438
			vertex 0.011978602968156338 0.0020000000949949026 -0.0022180788218975067
			vertex 0.01206731703132391 0.0020000000949949026 -0.002176120411604643
		endloop
	endfacet
	facet normal 0 1 0
		outer loop
			vertex 0.01145000010728836 0.0020000000949949026 -0.003100000089034438
			vertex 0.01189443003386259 0.0020000000949949026 -0.0022685304284095764
			vertex 0.011978602968156338 0.0020000000949949026 -0.0022180788218975067
		endloop
	endfacet
	facet normal 0 1 0
		outer loop
			vertex 0.01145000010728836 0.0020000000949949026 -0.003100000089034438
			vertex 0.011815606616437435 0.0020000000949949026 -0.00232698954641819
			vertex 0.01189443003386259 0.0020000000949949026 -0.0022685304284095764
		endloop
	endfacet
	facet normal 0 1 0
		outer loop
			vertex 0.01145000010728836 0.0020000000949949026 -0.003100000089034438
			vertex 0.011742893606424332 0.0020000000949949026 -0.0023928931914269924
			vertex 0.011815606616437435 0.0020000000949949026 -0.00232698954641819
		endloop
	endfacet
	facet normal 0 1 0
		outer loop
			vertex 0.01145000010728836 0.0020000000949949026 -0.003100000089034438
			vertex 0.011676989495754242 0.0020000000949949026 -0.002465606667101383
			vertex 0.011742893606424332 0.0020000000949949026 -0.0023928931914269924
		endloop
	endfacet
	facet normal 0 1 0
		outer loop
			vertex 0.01145000010728836 0.0020000000949949026 -0.003100000089034438
			vertex 0.011618530377745628 0.0020000000949949026 -0.002544429851695895
			vertex 0.011676989495754242 0.0020000000949949026 -0.002465606667101383
		endloop
	endfacet
	facet normal 0 1 0
		outer loop
			vertex 0.01145000010728836 0.0020000000949949026 -0.003100000089034438
			vertex 0.011568078771233559 0.0020000000949949026 -0.0026286032516509295
			vertex 0.011618530377745628 0.0020000000949949026 -0.002544429851695895
		endloop
	endfacet
	facet normal 0 1 0
		outer loop
			vertex 0.01145000010728836 0.0020000000949949026 -0.003100000089034438
			vertex 0.011526120826601982 0.0020000000949949026 -0.0027173166163265705
			vertex 0.011568078771233559 0.0020000000949949026 -0.0026286032516509295
		endloop
	endfacet
	facet normal 0 1 0
		outer loop
			vertex 0.01145000010728836 0.0020000000949949026 -0.003100000089034438
			vertex 0.011493059806525707 0.0020000000949949026 -0.002809715224429965
			vertex 0.011526120826601982 0.0020000000949949026 -0.0027173166163265705
		endloop
	endfacet
	facet normal 0 1 0
		outer loop
			vertex 0.01145000010728836 0.0020000000949949026 -0.003100000089034438
			vertex 0.011469215154647827 0.0020000000949949026 -0.002904909662902355
			vertex 0.011493059806525707 0.0020000000949949026 -0.002809715224429965
		endloop
	endfacet
	facet normal 0 1 0
		outer loop
			vertex 0.01145000010728836 0.0020000000949949026 -0.003100000089034438
			vertex 0.011454815044999123 0.0020000000949949026 -0.0030019828118383884
			vertex 0.011469215154647827 0.0020000000949949026 -0.002904909662902355
		endloop
	endfacet
	facet normal 0 1 0
		outer loop
			vertex 0.01145000010728836 0.0020000000949949026 -0.003100000089034438
			vertex 0.012740285135805607 0.0020000000949949026 -0.004056940320879221
			vertex 0.012450000271201134 0.0020000000949949026 -0.004100000020116568
		endloop
	endfacet
	facet normal 0 1 0
		outer loop
			vertex 0.01145000010728836 0.0020000000949949026 -0.004100000020116568
			vertex 0.01145000010728836 0.0020000000949949026 -0.003100000089034438
			vertex 0.012450000271201134 0.0020000000949949026 -0.004100000020116568
		endloop
	endfacet
	facet normal 0 1 0
		outer loop
			vertex 0.010449999943375587 0.0020000000949949026 -0.009999999776482582
			vertex 0.01145000010728836 0.0020000000949949026 -0.004100000020116568
			vertex 0.01145000010728836 0.0020000000949949026 -0.008999999612569809
		endloop
	endfacet
	facet normal 0 1 0
		outer loop
			vertex 0.010449999943375587 0.0020000000949949026 -0.009999999776482582
			vertex 0.010645090602338314 0.0020000000949949026 -0.00998078566044569
			vertex 0.010548016987740993 0.0020000000949949026 -0.00999518483877182
		endloop
	endfacet
	facet normal 0 1 0
		outer loop
			vertex 0.010449999943375587 0.0020000000949949026 -0.009999999776482582
			vertex 0.01074028480798006 0.0020000000949949026 -0.009956940077245235
			vertex 0.010645090602338314 0.0020000000949949026 -0.00998078566044569
		endloop
	endfacet
	facet normal 0 1 0
		outer loop
			vertex 0.010449999943375587 0.0020000000949949026 -0.009999999776482582
			vertex 0.010832683183252811 0.0020000000949949026 -0.009923879988491535
			vertex 0.01074028480798006 0.0020000000949949026 -0.009956940077245235
		endloop
	endfacet
	facet normal 0 1 0
		outer loop
			vertex 0.010449999943375587 0.0020000000949949026 -0.009999999776482582
			vertex 0.010921396315097809 0.0020000000949949026 -0.009881921112537384
			vertex 0.010832683183252811 0.0020000000949949026 -0.009923879988491535
		endloop
	endfacet
	facet normal 0 1 0
		outer loop
			vertex 0.010449999943375587 0.0020000000949949026 -0.009999999776482582
			vertex 0.01100557018071413 0.0020000000949949026 -0.009831469506025314
			vertex 0.010921396315097809 0.0020000000949949026 -0.009881921112537384
		endloop
	endfacet
	facet normal 0 1 0
		outer loop
			vertex 0.010449999943375587 0.0020000000949949026 -0.009999999776482582
			vertex 0.011084393598139286 0.0020000000949949026 -0.0097730103880167
			vertex 0.01100557018071413 0.0020000000949949026 -0.009831469506025314
		endloop
	endfacet
	facet normal 0 1 0
		outer loop
			vertex 0.010449999943375587 0.0020000000949949026 -0.009999999776482582
			vertex 0.01115710660815239 0.0020000000949949026 -0.009707107208669186
			vertex 0.011084393598139286 0.0020000000949949026 -0.0097730103880167
		endloop
	endfacet
	facet normal 0 1 0
		outer loop
			vertex 0.010449999943375587 0.0020000000949949026 -0.009999999776482582
			vertex 0.01122301071882248 0.0020000000949949026 -0.009634393267333508
			vertex 0.01115710660815239 0.0020000000949949026 -0.009707107208669186
		endloop
	endfacet
	facet normal 0 1 0
		outer loop
			vertex 0.010449999943375587 0.0020000000949949026 -0.009999999776482582
			vertex 0.011281469836831093 0.0020000000949949026 -0.009555569849908352
			vertex 0.01122301071882248 0.0020000000949949026 -0.009634393267333508
		endloop
	endfacet
	facet normal 0 1 0
		outer loop
			vertex 0.010449999943375587 0.0020000000949949026 -0.009999999776482582
			vertex 0.011331921443343163 0.0020000000949949026 -0.009471396915614605
			vertex 0.011281469836831093 0.0020000000949949026 -0.009555569849908352
		endloop
	endfacet
	facet normal 0 1 0
		outer loop
			vertex 0.010449999943375587 0.0020000000949949026 -0.009999999776482582
			vertex 0.011373879387974739 0.0020000000949949026 -0.009382683783769608
			vertex 0.011331921443343163 0.0020000000949949026 -0.009471396915614605
		endloop
	endfacet
	facet normal 0 1 0
		outer loop
			vertex 0.010449999943375587 0.0020000000949949026 -0.009999999776482582
			vertex 0.011406940408051014 0.0020000000949949026 -0.009290284477174282
			vertex 0.011373879387974739 0.0020000000949949026 -0.009382683783769608
		endloop
	endfacet
	facet normal 0 1 0
		outer loop
			vertex 0.010449999943375587 0.0020000000949949026 -0.009999999776482582
			vertex 0.011430785059928894 0.0020000000949949026 -0.009195090271532536
			vertex 0.011406940408051014 0.0020000000949949026 -0.009290284477174282
		endloop
	endfacet
	facet normal 0 1 0
		outer loop
			vertex 0.010449999943375587 0.0020000000949949026 -0.009999999776482582
			vertex 0.011445185169577599 0.0020000000949949026 -0.00909801758825779
			vertex 0.011430785059928894 0.0020000000949949026 -0.009195090271532536
		endloop
	endfacet
	facet normal 0 1 0
		outer loop
			vertex 0.010449999943375587 0.0020000000949949026 -0.009999999776482582
			vertex 0.01145000010728836 0.0020000000949949026 -0.008999999612569809
			vertex 0.011445185169577599 0.0020000000949949026 -0.00909801758825779
		endloop
	endfacet
	facet normal 0 1 0
		outer loop
			vertex -0.01145000010728836 0.0020000000949949026 0.009499999694526196
			vertex -0.010548016987740993 0.0020000000949949026 0.010495184920728207
			vertex -0.010449999943375587 0.0020000000949949026 0.010499999858438969
		endloop
	endfacet
	facet normal 0 1 0
		outer loop
			vertex -0.01145000010728836 0.0020000000949949026 0.009499999694526196
			vertex -0.010645090602338314 0.0020000000949949026 0.010480785742402077
			vertex -0.010548016987740993 0.0020000000949949026 0.010495184920728207
		endloop
	endfacet
	facet normal 0 1 0
		outer loop
			vertex -0.01145000010728836 0.0020000000949949026 0.009499999694526196
			vertex -0.01074028480798006 0.0020000000949949026 0.010456940159201622
			vertex -0.010645090602338314 0.0020000000949949026 0.010480785742402077
		endloop
	endfacet
	facet normal 0 1 0
		outer loop
			vertex -0.01145000010728836 0.0020000000949949026 0.009499999694526196
			vertex -0.010832683183252811 0.0020000000949949026 0.010423879139125347
			vertex -0.01074028480798006 0.0020000000949949026 0.010456940159201622
		endloop
	endfacet
	facet normal 0 1 0
		outer loop
			vertex -0.01145000010728836 0.0020000000949949026 0.009499999694526196
			vertex -0.010921396315097809 0.0020000000949949026 0.01038192119449377
			vertex -0.010832683183252811 0.0020000000949949026 0.010423879139125347
		endloop
	endfacet
	facet normal 0 1 0
		outer loop
			vertex -0.01145000010728836 0.0020000000949949026 0.009499999694526196
			vertex -0.01100557018071413 0.0020000000949949026 0.010331469587981701
			vertex -0.010921396315097809 0.0020000000949949026 0.01038192119449377
		endloop
	endfacet
	facet normal 0 1 0
		outer loop
			vertex -0.01145000010728836 0.0020000000949949026 0.009499999694526196
			vertex -0.011084393598139286 0.0020000000949949026 0.010273010469973087
			vertex -0.01100557018071413 0.0020000000949949026 0.010331469587981701
		endloop
	endfacet
	facet normal 0 1 0
		outer loop
			vertex -0.01145000010728836 0.0020000000949949026 0.009499999694526196
			vertex -0.01115710660815239 0.0020000000949949026 0.010207106359302998
			vertex -0.011084393598139286 0.0020000000949949026 0.010273010469973087
		endloop
	endfacet
	facet normal 0 1 0
		outer loop
			vertex -0.01145000010728836 0.0020000000949949026 0.009499999694526196
			vertex -0.01122301071882248 0.0020000000949949026 0.010134393349289894
			vertex -0.01115710660815239 0.0020000000949949026 0.010207106359302998
		endloop
	endfacet
	facet normal 0 1 0
		outer loop
			vertex -0.01145000010728836 0.0020000000949949026 0.009499999694526196
			vertex -0.011281469836831093 0.0020000000949949026 0.010055569931864738
			vertex -0.01122301071882248 0.0020000000949949026 0.010134393349289894
		endloop
	endfacet
	facet normal 0 1 0
		outer loop
			vertex -0.01145000010728836 0.0020000000949949026 0.009499999694526196
			vertex -0.011331921443343163 0.0020000000949949026 0.009971396997570992
			vertex -0.011281469836831093 0.0020000000949949026 0.010055569931864738
		endloop
	endfacet
	facet normal 0 1 0
		outer loop
			vertex -0.01145000010728836 0.0020000000949949026 0.009499999694526196
			vertex -0.011373879387974739 0.0020000000949949026 0.009882683865725994
			vertex -0.011331921443343163 0.0020000000949949026 0.009971396997570992
		endloop
	endfacet
	facet normal 0 1 0
		outer loop
			vertex -0.01145000010728836 0.0020000000949949026 0.009499999694526196
			vertex -0.011406940408051014 0.0020000000949949026 0.009790284559130669
			vertex -0.011373879387974739 0.0020000000949949026 0.009882683865725994
		endloop
	endfacet
	facet normal 0 1 0
		outer loop
			vertex -0.01145000010728836 0.0020000000949949026 0.009499999694526196
			vertex -0.011430785059928894 0.0020000000949949026 0.009695090353488922
			vertex -0.011406940408051014 0.0020000000949949026 0.009790284559130669
		endloop
	endfacet
	facet normal 0 1 0
		outer loop
			vertex -0.01145000010728836 0.0020000000949949026 0.009499999694526196
			vertex -0.011445185169577599 0.0020000000949949026 0.009598016738891602
			vertex -0.011430785059928894 0.0020000000949949026 0.009695090353488922
		endloop
	endfacet
	facet normal 0 1 0
		outer loop
			vertex -0.01145000010728836 0.0020000000949949026 0.0019000000320374966
			vertex 0.010449999943375587 0.0020000000949949026 0.010499999858438969
			vertex 0.01145000010728836 0.0020000000949949026 0.0019000000320374966
		endloop
	endfacet
	facet normal 0 1 0
		outer loop
			vertex -0.01145000010728836 0.0020000000949949026 0.0019000000320374966
			vertex -0.01145000010728836 0.0020000000949949026 0.009499999694526196
			vertex -0.010449999943375587 0.0020000000949949026 0.010499999858438969
		endloop
	endfacet
	facet normal 0 1 0
		outer loop
			vertex -0.01145000010728836 0.0020000000949949026 0.0019000000320374966
			vertex -0.010449999943375587 0.0020000000949949026 0.010499999858438969
			vertex 0.010449999943375587 0.0020000000949949026 0.010499999858438969
		endloop
	endfacet
	facet normal 0 1 0
		outer loop
			vertex -0.01145000010728836 0.0020000000949949026 -0.003100000089034438
			vertex -0.011469215154647827 0.0020000000949949026 -0.002904909662902355
			vertex -0.011454815044999123 0.0020000000949949026 -0.0030019828118383884
		endloop
	endfacet
	facet normal 0 1 0
		outer loop
			vertex -0.013157106935977936 0.0020000000949949026 -0.0023928931914269924
			vertex -0.013005570508539677 0.0020000000949949026 -0.0022685304284095764
			vertex -0.012921396642923355 0.0020000000949949026 -0.0022180788218975067
		endloop
	endfacet
	facet normal 0 1 0
		outer loop
			vertex -0.013157106935977936 0.0020000000949949026 -0.0023928931914269924
			vertex -0.013084392994642258 0.0020000000949949026 -0.00232698954641819
			vertex -0.013005570508539677 0.0020000000949949026 -0.0022685304284095764
		endloop
	endfacet
	facet normal 0 1 0
		outer loop
			vertex -0.01145000010728836 0.0020000000949949026 -0.004100000020116568
			vertex 0.01145000010728836 0.0020000000949949026 -0.003100000089034438
			vertex 0.01145000010728836 0.0020000000949949026 -0.004100000020116568
		endloop
	endfacet
	facet normal 0 1 0
		outer loop
			vertex -0.01145000010728836 0.0020000000949949026 -0.004100000020116568
			vertex -0.01145000010728836 0.0020000000949949026 -0.003100000089034438
			vertex 0.01145000010728836 0.0020000000949949026 -0.003100000089034438
		endloop
	endfacet
	facet normal 0 1 0
		outer loop
			vertex -0.012450000271201134 0.0020000000949949026 -0.004100000020116568
			vertex -0.01145000010728836 0.0020000000949949026 -0.003100000089034438
			vertex -0.01145000010728836 0.0020000000949949026 -0.004100000020116568
		endloop
	endfacet
	facet normal 0 1 0
		outer loop
			vertex -0.013005570508539677 0.0020000000949949026 -0.0039314697496593
			vertex -0.012832683511078358 0.0020000000949949026 -0.004023879300802946
			vertex -0.012921396642923355 0.0020000000949949026 -0.0039819213561713696
		endloop
	endfacet
	facet normal 0 1 0
		outer loop
			vertex -0.013157106935977936 0.0020000000949949026 -0.00380710675381124
			vertex -0.011493059806525707 0.0020000000949949026 -0.002809715224429965
			vertex -0.011469215154647827 0.0020000000949949026 -0.002904909662902355
		endloop
	endfacet
	facet normal 0 1 0
		outer loop
			vertex -0.013157106935977936 0.0020000000949949026 -0.00380710675381124
			vertex -0.011526120826601982 0.0020000000949949026 -0.0027173166163265705
			vertex -0.011493059806525707 0.0020000000949949026 -0.002809715224429965
		endloop
	endfacet
	facet normal 0 1 0
		outer loop
			vertex -0.013157106935977936 0.0020000000949949026 -0.00380710675381124
			vertex -0.011568078771233559 0.0020000000949949026 -0.0026286032516509295
			vertex -0.011526120826601982 0.0020000000949949026 -0.0027173166163265705
		endloop
	endfacet
	facet normal 0 1 0
		outer loop
			vertex -0.013157106935977936 0.0020000000949949026 -0.00380710675381124
			vertex -0.011618530377745628 0.0020000000949949026 -0.002544429851695895
			vertex -0.011568078771233559 0.0020000000949949026 -0.0026286032516509295
		endloop
	endfacet
	facet normal 0 1 0
		outer loop
			vertex -0.013157106935977936 0.0020000000949949026 -0.00380710675381124
			vertex -0.011676989495754242 0.0020000000949949026 -0.002465606667101383
			vertex -0.011618530377745628 0.0020000000949949026 -0.002544429851695895
		endloop
	endfacet
	facet normal 0 1 0
		outer loop
			vertex -0.013157106935977936 0.0020000000949949026 -0.00380710675381124
			vertex -0.013157106935977936 0.0020000000949949026 -0.0023928931914269924
			vertex -0.012921396642923355 0.0020000000949949026 -0.0022180788218975067
		endloop
	endfacet
	facet normal 0 1 0
		outer loop
			vertex -0.013157106935977936 0.0020000000949949026 -0.00380710675381124
			vertex -0.011742893606424332 0.0020000000949949026 -0.0023928931914269924
			vertex -0.011676989495754242 0.0020000000949949026 -0.002465606667101383
		endloop
	endfacet
	facet normal 0 1 0
		outer loop
			vertex -0.013157106935977936 0.0020000000949949026 -0.00380710675381124
			vertex -0.011815606616437435 0.0020000000949949026 -0.00232698954641819
			vertex -0.011742893606424332 0.0020000000949949026 -0.0023928931914269924
		endloop
	endfacet
	facet normal 0 1 0
		outer loop
			vertex -0.013157106935977936 0.0020000000949949026 -0.00380710675381124
			vertex -0.01189443003386259 0.0020000000949949026 -0.0022685304284095764
			vertex -0.011815606616437435 0.0020000000949949026 -0.00232698954641819
		endloop
	endfacet
	facet normal 0 1 0
		outer loop
			vertex -0.013157106935977936 0.0020000000949949026 -0.00380710675381124
			vertex -0.011978602968156338 0.0020000000949949026 -0.0022180788218975067
			vertex -0.01189443003386259 0.0020000000949949026 -0.0022685304284095764
		endloop
	endfacet
	facet normal 0 1 0
		outer loop
			vertex -0.013157106935977936 0.0020000000949949026 -0.00380710675381124
			vertex -0.01206731703132391 0.0020000000949949026 -0.002176120411604643
			vertex -0.011978602968156338 0.0020000000949949026 -0.0022180788218975067
		endloop
	endfacet
	facet normal 0 1 0
		outer loop
			vertex -0.013157106935977936 0.0020000000949949026 -0.00380710675381124
			vertex -0.01215971540659666 0.0020000000949949026 -0.0021430596243590117
			vertex -0.01206731703132391 0.0020000000949949026 -0.002176120411604643
		endloop
	endfacet
	facet normal 0 1 0
		outer loop
			vertex -0.013157106935977936 0.0020000000949949026 -0.00380710675381124
			vertex -0.012254909612238407 0.0020000000949949026 -0.002119214739650488
			vertex -0.01215971540659666 0.0020000000949949026 -0.0021430596243590117
		endloop
	endfacet
	facet normal 0 1 0
		outer loop
			vertex -0.013157106935977936 0.0020000000949949026 -0.00380710675381124
			vertex -0.012351983226835728 0.0020000000949949026 -0.0021048153284937143
			vertex -0.012254909612238407 0.0020000000949949026 -0.002119214739650488
		endloop
	endfacet
	facet normal 0 1 0
		outer loop
			vertex -0.013157106935977936 0.0020000000949949026 -0.00380710675381124
			vertex -0.012450000271201134 0.0020000000949949026 -0.002099999925121665
			vertex -0.012351983226835728 0.0020000000949949026 -0.0021048153284937143
		endloop
	endfacet
	facet normal 0 1 0
		outer loop
			vertex -0.013157106935977936 0.0020000000949949026 -0.00380710675381124
			vertex -0.01254801731556654 0.0020000000949949026 -0.0021048153284937143
			vertex -0.012450000271201134 0.0020000000949949026 -0.002099999925121665
		endloop
	endfacet
	facet normal 0 1 0
		outer loop
			vertex -0.013157106935977936 0.0020000000949949026 -0.00380710675381124
			vertex -0.012645089998841286 0.0020000000949949026 -0.002119214739650488
			vertex -0.01254801731556654 0.0020000000949949026 -0.0021048153284937143
		endloop
	endfacet
	facet normal 0 1 0
		outer loop
			vertex -0.013157106935977936 0.0020000000949949026 -0.00380710675381124
			vertex -0.012740285135805607 0.0020000000949949026 -0.0021430596243590117
			vertex -0.012645089998841286 0.0020000000949949026 -0.002119214739650488
		endloop
	endfacet
	facet normal 0 1 0
		outer loop
			vertex -0.013157106935977936 0.0020000000949949026 -0.00380710675381124
			vertex -0.012832683511078358 0.0020000000949949026 -0.002176120411604643
			vertex -0.012740285135805607 0.0020000000949949026 -0.0021430596243590117
		endloop
	endfacet
	facet normal 0 1 0
		outer loop
			vertex -0.013157106935977936 0.0020000000949949026 -0.00380710675381124
			vertex -0.012921396642923355 0.0020000000949949026 -0.0022180788218975067
			vertex -0.012832683511078358 0.0020000000949949026 -0.002176120411604643
		endloop
	endfacet
	facet normal 0 1 0
		outer loop
			vertex -0.013157106935977936 0.0020000000949949026 -0.00380710675381124
			vertex -0.013223010115325451 0.0020000000949949026 -0.002465606667101383
			vertex -0.013157106935977936 0.0020000000949949026 -0.0023928931914269924
		endloop
	endfacet
	facet normal 0 1 0
		outer loop
			vertex -0.013157106935977936 0.0020000000949949026 -0.00380710675381124
			vertex -0.013281469233334064 0.0020000000949949026 -0.002544429851695895
			vertex -0.013223010115325451 0.0020000000949949026 -0.002465606667101383
		endloop
	endfacet
	facet normal 0 1 0
		outer loop
			vertex -0.013157106935977936 0.0020000000949949026 -0.00380710675381124
			vertex -0.013331920839846134 0.0020000000949949026 -0.0026286032516509295
			vertex -0.013281469233334064 0.0020000000949949026 -0.002544429851695895
		endloop
	endfacet
	facet normal 0 1 0
		outer loop
			vertex -0.013157106935977936 0.0020000000949949026 -0.00380710675381124
			vertex -0.013373879715800285 0.0020000000949949026 -0.0027173166163265705
			vertex -0.013331920839846134 0.0020000000949949026 -0.0026286032516509295
		endloop
	endfacet
	facet normal 0 1 0
		outer loop
			vertex -0.013157106935977936 0.0020000000949949026 -0.00380710675381124
			vertex -0.01340694073587656 0.0020000000949949026 -0.002809715224429965
			vertex -0.013373879715800285 0.0020000000949949026 -0.0027173166163265705
		endloop
	endfacet
	facet normal 0 1 0
		outer loop
			vertex -0.013157106935977936 0.0020000000949949026 -0.00380710675381124
			vertex -0.01343078538775444 0.0020000000949949026 -0.002904909662902355
			vertex -0.01340694073587656 0.0020000000949949026 -0.002809715224429965
		endloop
	endfacet
	facet normal 0 1 0
		outer loop
			vertex -0.013157106935977936 0.0020000000949949026 -0.00380710675381124
			vertex -0.01344518456608057 0.0020000000949949026 -0.0030019828118383884
			vertex -0.01343078538775444 0.0020000000949949026 -0.002904909662902355
		endloop
	endfacet
	facet normal 0 1 0
		outer loop
			vertex -0.013157106935977936 0.0020000000949949026 -0.00380710675381124
			vertex -0.01145000010728836 0.0020000000949949026 -0.003100000089034438
			vertex -0.012450000271201134 0.0020000000949949026 -0.004100000020116568
		endloop
	endfacet
	facet normal 0 1 0
		outer loop
			vertex -0.013157106935977936 0.0020000000949949026 -0.00380710675381124
			vertex -0.013450000435113907 0.0020000000949949026 -0.003100000089034438
			vertex -0.01344518456608057 0.0020000000949949026 -0.0030019828118383884
		endloop
	endfacet
	facet normal 0 1 0
		outer loop
			vertex -0.013157106935977936 0.0020000000949949026 -0.00380710675381124
			vertex -0.01344518456608057 0.0020000000949949026 -0.003198017133399844
			vertex -0.013450000435113907 0.0020000000949949026 -0.003100000089034438
		endloop
	endfacet
	facet normal 0 1 0
		outer loop
			vertex -0.013157106935977936 0.0020000000949949026 -0.00380710675381124
			vertex -0.01343078538775444 0.0020000000949949026 -0.0032950902823358774
			vertex -0.01344518456608057 0.0020000000949949026 -0.003198017133399844
		endloop
	endfacet
	facet normal 0 1 0
		outer loop
			vertex -0.013157106935977936 0.0020000000949949026 -0.00380710675381124
			vertex -0.01340694073587656 0.0020000000949949026 -0.0033902847208082676
			vertex -0.01343078538775444 0.0020000000949949026 -0.0032950902823358774
		endloop
	endfacet
	facet normal 0 1 0
		outer loop
			vertex -0.013157106935977936 0.0020000000949949026 -0.00380710675381124
			vertex -0.013373879715800285 0.0020000000949949026 -0.003482683328911662
			vertex -0.01340694073587656 0.0020000000949949026 -0.0033902847208082676
		endloop
	endfacet
	facet normal 0 1 0
		outer loop
			vertex -0.013157106935977936 0.0020000000949949026 -0.00380710675381124
			vertex -0.013331920839846134 0.0020000000949949026 -0.003571396693587303
			vertex -0.013373879715800285 0.0020000000949949026 -0.003482683328911662
		endloop
	endfacet
	facet normal 0 1 0
		outer loop
			vertex -0.013157106935977936 0.0020000000949949026 -0.00380710675381124
			vertex -0.013281469233334064 0.0020000000949949026 -0.003655570326372981
			vertex -0.013331920839846134 0.0020000000949949026 -0.003571396693587303
		endloop
	endfacet
	facet normal 0 1 0
		outer loop
			vertex -0.013157106935977936 0.0020000000949949026 -0.00380710675381124
			vertex -0.013223010115325451 0.0020000000949949026 -0.0037343932781368494
			vertex -0.013281469233334064 0.0020000000949949026 -0.003655570326372981
		endloop
	endfacet
	facet normal 0 1 0
		outer loop
			vertex -0.013157106935977936 0.0020000000949949026 -0.00380710675381124
			vertex -0.013005570508539677 0.0020000000949949026 -0.0039314697496593
			vertex -0.013084392994642258 0.0020000000949949026 -0.0038730103988200426
		endloop
	endfacet
	facet normal 0 1 0
		outer loop
			vertex -0.013157106935977936 0.0020000000949949026 -0.00380710675381124
			vertex -0.012740285135805607 0.0020000000949949026 -0.004056940320879221
			vertex -0.012832683511078358 0.0020000000949949026 -0.004023879300802946
		endloop
	endfacet
	facet normal 0 1 0
		outer loop
			vertex -0.013157106935977936 0.0020000000949949026 -0.00380710675381124
			vertex -0.012832683511078358 0.0020000000949949026 -0.004023879300802946
			vertex -0.013005570508539677 0.0020000000949949026 -0.0039314697496593
		endloop
	endfacet
	facet normal 0 1 0
		outer loop
			vertex -0.013157106935977936 0.0020000000949949026 -0.00380710675381124
			vertex -0.012645089998841286 0.0020000000949949026 -0.004080785438418388
			vertex -0.012740285135805607 0.0020000000949949026 -0.004056940320879221
		endloop
	endfacet
	facet normal 0 1 0
		outer loop
			vertex -0.013157106935977936 0.0020000000949949026 -0.00380710675381124
			vertex -0.01254801731556654 0.0020000000949949026 -0.004095184616744518
			vertex -0.012645089998841286 0.0020000000949949026 -0.004080785438418388
		endloop
	endfacet
	facet normal 0 1 0
		outer loop
			vertex -0.013157106935977936 0.0020000000949949026 -0.00380710675381124
			vertex -0.012450000271201134 0.0020000000949949026 -0.004100000020116568
			vertex -0.01254801731556654 0.0020000000949949026 -0.004095184616744518
		endloop
	endfacet
	facet normal 0 1 0
		outer loop
			vertex -0.013157106935977936 0.0020000000949949026 -0.00380710675381124
			vertex -0.011469215154647827 0.0020000000949949026 -0.002904909662902355
			vertex -0.01145000010728836 0.0020000000949949026 -0.003100000089034438
		endloop
	endfacet
	facet normal 0 1 0
		outer loop
			vertex -0.010449999943375587 0.0020000000949949026 -0.009999999776482582
			vertex -0.01145000010728836 0.0020000000949949026 -0.008999999612569809
			vertex -0.01145000010728836 0.0020000000949949026 -0.004100000020116568
		endloop
	endfacet
	facet normal 0 1 0
		outer loop
			vertex -0.010449999943375587 0.0020000000949949026 -0.009999999776482582
			vertex 0.01145000010728836 0.0020000000949949026 -0.004100000020116568
			vertex 0.010449999943375587 0.0020000000949949026 -0.009999999776482582
		endloop
	endfacet
	facet normal 0 1 0
		outer loop
			vertex -0.010449999943375587 0.0020000000949949026 -0.009999999776482582
			vertex -0.01145000010728836 0.0020000000949949026 -0.004100000020116568
			vertex 0.01145000010728836 0.0020000000949949026 -0.004100000020116568
		endloop
	endfacet
	facet normal 0 1 0
		outer loop
			vertex -0.01115710660815239 0.0020000000949949026 -0.009707107208669186
			vertex -0.011445185169577599 0.0020000000949949026 -0.00909801758825779
			vertex -0.01145000010728836 0.0020000000949949026 -0.008999999612569809
		endloop
	endfacet
	facet normal 0 1 0
		outer loop
			vertex -0.01115710660815239 0.0020000000949949026 -0.009707107208669186
			vertex -0.011430785059928894 0.0020000000949949026 -0.009195090271532536
			vertex -0.011445185169577599 0.0020000000949949026 -0.00909801758825779
		endloop
	endfacet
	facet normal 0 1 0
		outer loop
			vertex -0.01115710660815239 0.0020000000949949026 -0.009707107208669186
			vertex -0.011406940408051014 0.0020000000949949026 -0.009290284477174282
			vertex -0.011430785059928894 0.0020000000949949026 -0.009195090271532536
		endloop
	endfacet
	facet normal 0 1 0
		outer loop
			vertex -0.01115710660815239 0.0020000000949949026 -0.009707107208669186
			vertex -0.011373879387974739 0.0020000000949949026 -0.009382683783769608
			vertex -0.011406940408051014 0.0020000000949949026 -0.009290284477174282
		endloop
	endfacet
	facet normal 0 1 0
		outer loop
			vertex -0.01115710660815239 0.0020000000949949026 -0.009707107208669186
			vertex -0.011331921443343163 0.0020000000949949026 -0.009471396915614605
			vertex -0.011373879387974739 0.0020000000949949026 -0.009382683783769608
		endloop
	endfacet
	facet normal 0 1 0
		outer loop
			vertex -0.01115710660815239 0.0020000000949949026 -0.009707107208669186
			vertex -0.011281469836831093 0.0020000000949949026 -0.009555569849908352
			vertex -0.011331921443343163 0.0020000000949949026 -0.009471396915614605
		endloop
	endfacet
	facet normal 0 1 0
		outer loop
			vertex -0.01115710660815239 0.0020000000949949026 -0.009707107208669186
			vertex -0.01122301071882248 0.0020000000949949026 -0.009634393267333508
			vertex -0.011281469836831093 0.0020000000949949026 -0.009555569849908352
		endloop
	endfacet
	facet normal 0 1 0
		outer loop
			vertex -0.01115710660815239 0.0020000000949949026 -0.009707107208669186
			vertex -0.01100557018071413 0.0020000000949949026 -0.009831469506025314
			vertex -0.011084393598139286 0.0020000000949949026 -0.0097730103880167
		endloop
	endfacet
	facet normal 0 1 0
		outer loop
			vertex -0.01115710660815239 0.0020000000949949026 -0.009707107208669186
			vertex -0.010921396315097809 0.0020000000949949026 -0.009881921112537384
			vertex -0.01100557018071413 0.0020000000949949026 -0.009831469506025314
		endloop
	endfacet
	facet normal 0 1 0
		outer loop
			vertex -0.01115710660815239 0.0020000000949949026 -0.009707107208669186
			vertex -0.010832683183252811 0.0020000000949949026 -0.009923879988491535
			vertex -0.010921396315097809 0.0020000000949949026 -0.009881921112537384
		endloop
	endfacet
	facet normal 0 1 0
		outer loop
			vertex -0.01115710660815239 0.0020000000949949026 -0.009707107208669186
			vertex -0.01074028480798006 0.0020000000949949026 -0.009956940077245235
			vertex -0.010832683183252811 0.0020000000949949026 -0.009923879988491535
		endloop
	endfacet
	facet normal 0 1 0
		outer loop
			vertex -0.01115710660815239 0.0020000000949949026 -0.009707107208669186
			vertex -0.010645090602338314 0.0020000000949949026 -0.00998078566044569
			vertex -0.01074028480798006 0.0020000000949949026 -0.009956940077245235
		endloop
	endfacet
	facet normal 0 1 0
		outer loop
			vertex -0.01115710660815239 0.0020000000949949026 -0.009707107208669186
			vertex -0.010548016987740993 0.0020000000949949026 -0.00999518483877182
			vertex -0.010645090602338314 0.0020000000949949026 -0.00998078566044569
		endloop
	endfacet
	facet normal 0 1 0
		outer loop
			vertex -0.01115710660815239 0.0020000000949949026 -0.009707107208669186
			vertex -0.010449999943375587 0.0020000000949949026 -0.009999999776482582
			vertex -0.010548016987740993 0.0020000000949949026 -0.00999518483877182
		endloop
	endfacet
	facet normal 0 1 0
		outer loop
			vertex -0.01115710660815239 0.0020000000949949026 -0.009707107208669186
			vertex -0.01145000010728836 0.0020000000949949026 -0.008999999612569809
			vertex -0.010449999943375587 0.0020000000949949026 -0.009999999776482582
		endloop
	endfacet
	facet normal 0 1 0
		outer loop
			vertex -0.01145000010728836 0.0020000000949949026 -0.003100000089034438
			vertex -0.01145000010728836 0.0020000000949949026 0.0019000000320374966
			vertex 0.01145000010728836 0.0020000000949949026 -0.003100000089034438
		endloop
	endfacet
	facet normal 0 1 0
		outer loop
			vertex 0.01145000010728836 0.0020000000949949026 -0.003100000089034438
			vertex -0.01145000010728836 0.0020000000949949026 0.0019000000320374966
			vertex 0.01145000010728836 0.0020000000949949026 0.0019000000320374966
		endloop
	endfacet
	facet normal 0 1 0
		outer loop
			vertex 0.01591670885682106 0 -0.0045406511053442955
			vertex 0.015946974977850914 0 -0.004100000020116568
			vertex 0.015949999913573265 0 -0.004100000020116568
		endloop
	endfacet
	facet normal 0 1 0
		outer loop
			vertex 0.01145000010728836 0 -0.004100000020116568
			vertex 0.01594865508377552 0 -0.004036503378301859
			vertex 0.015946974977850914 0 -0.004100000020116568
		endloop
	endfacet
	facet normal 0 1 0
		outer loop
			vertex 0.01145000010728836 0 -0.004100000020116568
			vertex 0.015949664637446404 0 -0.003972992766648531
			vertex 0.01594865508377552 0 -0.004036503378301859
		endloop
	endfacet
	facet normal 0 1 0
		outer loop
			vertex 0.01145000010728836 0 -0.004100000020116568
			vertex 0.015949999913573265 0 -0.003909475170075893
			vertex 0.015949664637446404 0 -0.003972992766648531
		endloop
	endfacet
	facet normal 0 1 0
		outer loop
			vertex 0.01145000010728836 0 -0.004100000020116568
			vertex 0.01145000010728836 0 0.0019000000320374966
			vertex 0.015949999913573265 0 -0.003909475170075893
		endloop
	endfacet
	facet normal -1 0 0
		outer loop
			vertex -0.01145000010728836 0.0020000000949949026 -0.003100000089034438
			vertex -0.01145000010728836 0.0020000000949949026 0.0019000000320374966
			vertex -0.01145000010728836 0.014399999752640724 0.0019000000320374966
		endloop
	endfacet
	facet normal -1 0 0
		outer loop
			vertex -0.01145000010728836 0.0020000000949949026 -0.003100000089034438
			vertex -0.01145000010728836 0.014399999752640724 0.0019000000320374966
			vertex -0.01145000010728836 0.014399999752640724 -0.003100000089034438
		endloop
	endfacet
	facet normal 1 0 0
		outer loop
			vertex -0.015949999913573265 0 -0.003909475170075893
			vertex -0.015949999913573265 0 -0.004100000020116568
			vertex -0.015949999913573265 0.014399999752640724 -0.004100000020116568
		endloop
	endfacet
	facet normal 1 0 0
		outer loop
			vertex -0.015949999913573265 0 -0.003909475170075893
			vertex -0.015949999913573265 0.014399999752640724 -0.004100000020116568
			vertex -0.015949999913573265 0.014399999752640724 -0.003909475170075893
		endloop
	endfacet
	facet normal 0 0 1
		outer loop
			vertex -0.012450000271201134 0.0020000000949949026 -0.004100000020116568
			vertex -0.012450000271201134 0.014399999752640724 -0.004100000020116568
			vertex -0.015949999913573265 0.014399999752640724 -0.004100000020116568
		endloop
	endfacet
	facet normal 0 0 1
		outer loop
			vertex -0.01145000010728836 0 -0.004100000020116568
			vertex -0.01145000010728836 0.0020000000949949026 -0.004100000020116568
			vertex -0.012450000271201134 0.0020000000949949026 -0.004100000020116568
		endloop
	endfacet
	facet normal 0 0 1
		outer loop
			vertex -0.015949999913573265 0 -0.004100000020116568
			vertex -0.01145000010728836 0 -0.004100000020116568
			vertex -0.012450000271201134 0.0020000000949949026 -0.004100000020116568
		endloop
	endfacet
	facet normal 0 0 1
		outer loop
			vertex -0.015949999913573265 0 -0.004100000020116568
			vertex -0.012450000271201134 0.0020000000949949026 -0.004100000020116568
			vertex -0.015949999913573265 0.014399999752640724 -0.004100000020116568
		endloop
	endfacet
	facet normal 0 -1 0
		outer loop
			vertex -0.012450000271201134 0.014399999752640724 -0.004100000020116568
			vertex -0.012068883515894413 0.014399999752640724 -0.009522881358861923
			vertex -0.01165019255131483 0.014399999752640724 -0.00966354738920927
		endloop
	endfacet
	facet normal 0 -1 0
		outer loop
			vertex -0.012450000271201134 0.014399999752640724 -0.004100000020116568
			vertex -0.012476092204451561 0.014399999752640724 -0.00935179553925991
			vertex -0.012068883515894413 0.014399999752640724 -0.009522881358861923
		endloop
	endfacet
	facet normal 0 -1 0
		outer loop
			vertex -0.012450000271201134 0.014399999752640724 -0.004100000020116568
			vertex -0.01286961231380701 0.014399999752640724 -0.00915121752768755
			vertex -0.012476092204451561 0.014399999752640724 -0.00935179553925991
		endloop
	endfacet
	facet normal 0 -1 0
		outer loop
			vertex -0.012450000271201134 0.014399999752640724 -0.004100000020116568
			vertex -0.013247310183942318 0.014399999752640724 -0.008922233246266842
			vertex -0.01286961231380701 0.014399999752640724 -0.00915121752768755
		endloop
	endfacet
	facet normal 0 -1 0
		outer loop
			vertex -0.012450000271201134 0.014399999752640724 -0.004100000020116568
			vertex -0.013607138767838478 0.014399999752640724 -0.00866608414798975
			vertex -0.013247310183942318 0.014399999752640724 -0.008922233246266842
		endloop
	endfacet
	facet normal 0 -1 0
		outer loop
			vertex -0.012450000271201134 0.014399999752640724 -0.004100000020116568
			vertex -0.013947149738669395 0.014399999752640724 -0.008384158834815025
			vertex -0.013607138767838478 0.014399999752640724 -0.00866608414798975
		endloop
	endfacet
	facet normal 0 -1 0
		outer loop
			vertex -0.012450000271201134 0.014399999752640724 -0.004100000020116568
			vertex -0.014265499077737331 0.014399999752640724 -0.008077983744442463
			vertex -0.013947149738669395 0.014399999752640724 -0.008384158834815025
		endloop
	endfacet
	facet normal 0 -1 0
		outer loop
			vertex -0.012450000271201134 0.014399999752640724 -0.004100000020116568
			vertex -0.009026758372783661 0.014399999752640724 -0.00983801856637001
			vertex -0.008593126200139523 0.014399999752640724 -0.00975403655320406
		endloop
	endfacet
	facet normal 0 -1 0
		outer loop
			vertex -0.012450000271201134 0.014399999752640724 -0.004100000020116568
			vertex -0.009465392678976059 0.014399999752640724 -0.009889872744679451
			vertex -0.009026758372783661 0.014399999752640724 -0.00983801856637001
		endloop
	endfacet
	facet normal 0 -1 0
		outer loop
			vertex -0.012450000271201134 0.014399999752640724 -0.004100000020116568
			vertex -0.009906653314828873 0.014399999752640724 -0.009909318760037422
			vertex -0.009465392678976059 0.014399999752640724 -0.009889872744679451
		endloop
	endfacet
	facet normal 0 -1 0
		outer loop
			vertex -0.012450000271201134 0.014399999752640724 -0.004100000020116568
			vertex -0.010348149575293064 0.014399999752640724 -0.009896250441670418
			vertex -0.009906653314828873 0.014399999752640724 -0.009909318760037422
		endloop
	endfacet
	facet normal 0 -1 0
		outer loop
			vertex -0.012450000271201134 0.014399999752640724 -0.004100000020116568
			vertex -0.010787487961351871 0.014399999752640724 -0.009850738570094109
			vertex -0.010348149575293064 0.014399999752640724 -0.009896250441670418
		endloop
	endfacet
	facet normal 0 -1 0
		outer loop
			vertex -0.012450000271201134 0.014399999752640724 -0.004100000020116568
			vertex -0.011222287081182003 0.014399999752640724 -0.009773030877113342
			vertex -0.010787487961351871 0.014399999752640724 -0.009850738570094109
		endloop
	endfacet
	facet normal 0 -1 0
		outer loop
			vertex -0.012450000271201134 0.014399999752640724 -0.004100000020116568
			vertex -0.01165019255131483 0.014399999752640724 -0.00966354738920927
			vertex -0.011222287081182003 0.014399999752640724 -0.009773030877113342
		endloop
	endfacet
	facet normal 0 -1 0
		outer loop
			vertex -0.01145000010728836 0.014399999752640724 -0.003100000089034438
			vertex -0.012450000271201134 0.014399999752640724 -0.004100000020116568
			vertex -0.008593126200139523 0.014399999752640724 -0.00975403655320406
		endloop
	endfacet
	facet normal 0 -1 0
		outer loop
			vertex -0.01145000010728836 0.014399999752640724 -0.003100000089034438
			vertex -0.004315508063882589 0.014399999752640724 -0.0018473160453140736
			vertex -0.004482477903366089 0.014399999752640724 -0.0014384024543687701
		endloop
	endfacet
	facet normal 0 -1 0
		outer loop
			vertex -0.01145000010728836 0.014399999752640724 -0.003100000089034438
			vertex -0.004179072566330433 0.014399999752640724 -0.0022674049250781536
			vertex -0.004315508063882589 0.014399999752640724 -0.0018473160453140736
		endloop
	endfacet
	facet normal 0 -1 0
		outer loop
			vertex -0.01145000010728836 0.014399999752640724 -0.003100000089034438
			vertex -0.004073910415172577 0.014399999752640724 -0.002696392359212041
			vertex -0.004179072566330433 0.014399999752640724 -0.0022674049250781536
		endloop
	endfacet
	facet normal 0 -1 0
		outer loop
			vertex -0.01145000010728836 0.014399999752640724 -0.003100000089034438
			vertex -0.004000591579824686 0.014399999752640724 -0.003131953766569495
			vertex -0.004073910415172577 0.014399999752640724 -0.002696392359212041
		endloop
	endfacet
	facet normal 0 -1 0
		outer loop
			vertex -0.01145000010728836 0.014399999752640724 -0.003100000089034438
			vertex -0.003959513735026121 0.014399999752640724 -0.00357172847725451
			vertex -0.004000591579824686 0.014399999752640724 -0.003131953766569495
		endloop
	endfacet
	facet normal 0 -1 0
		outer loop
			vertex -0.01145000010728836 0.014399999752640724 -0.003100000089034438
			vertex -0.003950899001210928 0.014399999752640724 -0.004013333469629288
			vertex -0.003959513735026121 0.014399999752640724 -0.00357172847725451
		endloop
	endfacet
	facet normal 0 -1 0
		outer loop
			vertex -0.01145000010728836 0.014399999752640724 -0.003100000089034438
			vertex -0.003974794410169125 0.014399999752640724 -0.004454375710338354
			vertex -0.003950899001210928 0.014399999752640724 -0.004013333469629288
		endloop
	endfacet
	facet normal 0 -1 0
		outer loop
			vertex -0.01145000010728836 0.014399999752640724 -0.003100000089034438
			vertex -0.004031070042401552 0.014399999752640724 -0.004892465192824602
			vertex -0.003974794410169125 0.014399999752640724 -0.004454375710338354
		endloop
	endfacet
	facet normal 0 -1 0
		outer loop
			vertex -0.01145000010728836 0.014399999752640724 -0.003100000089034438
			vertex -0.004119421821087599 0.014399999752640724 -0.005325227975845337
			vertex -0.004031070042401552 0.014399999752640724 -0.004892465192824602
		endloop
	endfacet
	facet normal 0 -1 0
		outer loop
			vertex -0.01145000010728836 0.014399999752640724 -0.003100000089034438
			vertex -0.00423936964944005 0.014399999752640724 -0.005750318057835102
			vertex -0.004119421821087599 0.014399999752640724 -0.005325227975845337
		endloop
	endfacet
	facet normal 0 -1 0
		outer loop
			vertex -0.01145000010728836 0.014399999752640724 -0.003100000089034438
			vertex -0.0043902648612856865 0.014399999752640724 -0.0061654322780668736
			vertex -0.00423936964944005 0.014399999752640724 -0.005750318057835102
		endloop
	endfacet
	facet normal 0 -1 0
		outer loop
			vertex -0.01145000010728836 0.014399999752640724 -0.003100000089034438
			vertex -0.004571288824081421 0.014399999752640724 -0.006568321492522955
			vertex -0.0043902648612856865 0.014399999752640724 -0.0061654322780668736
		endloop
	endfacet
	facet normal 0 -1 0
		outer loop
			vertex -0.01145000010728836 0.014399999752640724 -0.003100000089034438
			vertex -0.004781460855156183 0.014399999752640724 -0.006956801749765873
			vertex -0.004571288824081421 0.014399999752640724 -0.006568321492522955
		endloop
	endfacet
	facet normal 0 -1 0
		outer loop
			vertex -0.01145000010728836 0.014399999752640724 -0.003100000089034438
			vertex -0.005019641947001219 0.014399999752640724 -0.007328768260776997
			vertex -0.004781460855156183 0.014399999752640724 -0.006956801749765873
		endloop
	endfacet
	facet normal 0 -1 0
		outer loop
			vertex -0.01145000010728836 0.014399999752640724 -0.003100000089034438
			vertex -0.0052845412865281105 0.014399999752640724 -0.007682205177843571
			vertex -0.005019641947001219 0.014399999752640724 -0.007328768260776997
		endloop
	endfacet
	facet normal 0 -1 0
		outer loop
			vertex -0.01145000010728836 0.014399999752640724 -0.003100000089034438
			vertex -0.005574723239988089 0.014399999752640724 -0.008015196770429611
			vertex -0.0052845412865281105 0.014399999752640724 -0.007682205177843571
		endloop
	endfacet
	facet normal 0 -1 0
		outer loop
			vertex -0.01145000010728836 0.014399999752640724 -0.003100000089034438
			vertex -0.005888615734875202 0.014399999752640724 -0.008325939066708088
			vertex -0.005574723239988089 0.014399999752640724 -0.008015196770429611
		endloop
	endfacet
	facet normal 0 -1 0
		outer loop
			vertex -0.01145000010728836 0.014399999752640724 -0.003100000089034438
			vertex -0.006224517710506916 0.014399999752640724 -0.008612748235464096
			vertex -0.005888615734875202 0.014399999752640724 -0.008325939066708088
		endloop
	endfacet
	facet normal 0 -1 0
		outer loop
			vertex -0.01145000010728836 0.014399999752640724 -0.003100000089034438
			vertex -0.006580608431249857 0.014399999752640724 -0.008874069899320602
			vertex -0.006224517710506916 0.014399999752640724 -0.008612748235464096
		endloop
	endfacet
	facet normal 0 -1 0
		outer loop
			vertex -0.01145000010728836 0.014399999752640724 -0.003100000089034438
			vertex -0.006954958196729422 0.014399999752640724 -0.009108486585319042
			vertex -0.006580608431249857 0.014399999752640724 -0.008874069899320602
		endloop
	endfacet
	facet normal 0 -1 0
		outer loop
			vertex -0.01145000010728836 0.014399999752640724 -0.003100000089034438
			vertex -0.0073455385863780975 0.014399999752640724 -0.00931472983211279
			vertex -0.006954958196729422 0.014399999752640724 -0.009108486585319042
		endloop
	endfacet
	facet normal 0 -1 0
		outer loop
			vertex -0.01145000010728836 0.014399999752640724 -0.003100000089034438
			vertex -0.007750233169645071 0.014399999752640724 -0.00949168112128973
			vertex -0.0073455385863780975 0.014399999752640724 -0.00931472983211279
		endloop
	endfacet
	facet normal 0 -1 0
		outer loop
			vertex -0.01145000010728836 0.014399999752640724 -0.003100000089034438
			vertex -0.008166848681867123 0.014399999752640724 -0.009638381190598011
			vertex -0.007750233169645071 0.014399999752640724 -0.00949168112128973
		endloop
	endfacet
	facet normal 0 -1 0
		outer loop
			vertex -0.01145000010728836 0.014399999752640724 -0.003100000089034438
			vertex -0.008593126200139523 0.014399999752640724 -0.00975403655320406
			vertex -0.008166848681867123 0.014399999752640724 -0.009638381190598011
		endloop
	endfacet
	facet normal 0 -1 0
		outer loop
			vertex -0.013157106935977936 0.014399999752640724 -0.0023928931914269924
			vertex -0.01254801731556654 0.014399999752640724 -0.004095184616744518
			vertex -0.012450000271201134 0.014399999752640724 -0.004100000020116568
		endloop
	endfacet
	facet normal 0 -1 0
		outer loop
			vertex -0.013157106935977936 0.014399999752640724 -0.0023928931914269924
			vertex -0.012645089998841286 0.014399999752640724 -0.004080785438418388
			vertex -0.01254801731556654 0.014399999752640724 -0.004095184616744518
		endloop
	endfacet
	facet normal 0 -1 0
		outer loop
			vertex -0.013157106935977936 0.014399999752640724 -0.0023928931914269924
			vertex -0.012740285135805607 0.014399999752640724 -0.004056940320879221
			vertex -0.012645089998841286 0.014399999752640724 -0.004080785438418388
		endloop
	endfacet
	facet normal 0 -1 0
		outer loop
			vertex -0.013157106935977936 0.014399999752640724 -0.0023928931914269924
			vertex -0.012832683511078358 0.014399999752640724 -0.004023879300802946
			vertex -0.012740285135805607 0.014399999752640724 -0.004056940320879221
		endloop
	endfacet
	facet normal 0 -1 0
		outer loop
			vertex -0.013157106935977936 0.014399999752640724 -0.0023928931914269924
			vertex -0.012450000271201134 0.014399999752640724 -0.004100000020116568
			vertex -0.01145000010728836 0.014399999752640724 -0.003100000089034438
		endloop
	endfacet
	facet normal 0 -1 0
		outer loop
			vertex -0.013157106935977936 0.014399999752640724 -0.0023928931914269924
			vertex -0.012921396642923355 0.014399999752640724 -0.0039819213561713696
			vertex -0.012832683511078358 0.014399999752640724 -0.004023879300802946
		endloop
	endfacet
	facet normal 0 -1 0
		outer loop
			vertex -0.013157106935977936 0.014399999752640724 -0.0023928931914269924
			vertex -0.013005570508539677 0.014399999752640724 -0.0039314697496593
			vertex -0.012921396642923355 0.014399999752640724 -0.0039819213561713696
		endloop
	endfacet
	facet normal 0 -1 0
		outer loop
			vertex -0.013157106935977936 0.014399999752640724 -0.0023928931914269924
			vertex -0.013084392994642258 0.014399999752640724 -0.0038730103988200426
			vertex -0.013005570508539677 0.014399999752640724 -0.0039314697496593
		endloop
	endfacet
	facet normal 0 -1 0
		outer loop
			vertex -0.013157106935977936 0.014399999752640724 -0.0023928931914269924
			vertex -0.013157106935977936 0.014399999752640724 -0.00380710675381124
			vertex -0.013084392994642258 0.014399999752640724 -0.0038730103988200426
		endloop
	endfacet
	facet normal 0 -1 0
		outer loop
			vertex -0.013157106935977936 0.014399999752640724 -0.0023928931914269924
			vertex -0.013223010115325451 0.014399999752640724 -0.0037343932781368494
			vertex -0.013157106935977936 0.014399999752640724 -0.00380710675381124
		endloop
	endfacet
	facet normal 0 -1 0
		outer loop
			vertex -0.013157106935977936 0.014399999752640724 -0.0023928931914269924
			vertex -0.013281469233334064 0.014399999752640724 -0.003655570326372981
			vertex -0.013223010115325451 0.014399999752640724 -0.0037343932781368494
		endloop
	endfacet
	facet normal 0 -1 0
		outer loop
			vertex -0.013157106935977936 0.014399999752640724 -0.0023928931914269924
			vertex -0.013331920839846134 0.014399999752640724 -0.003571396693587303
			vertex -0.013281469233334064 0.014399999752640724 -0.003655570326372981
		endloop
	endfacet
	facet normal 0 -1 0
		outer loop
			vertex -0.013157106935977936 0.014399999752640724 -0.0023928931914269924
			vertex -0.013373879715800285 0.014399999752640724 -0.003482683328911662
			vertex -0.013331920839846134 0.014399999752640724 -0.003571396693587303
		endloop
	endfacet
	facet normal 0 -1 0
		outer loop
			vertex -0.013157106935977936 0.014399999752640724 -0.0023928931914269924
			vertex -0.01340694073587656 0.014399999752640724 -0.0033902847208082676
			vertex -0.013373879715800285 0.014399999752640724 -0.003482683328911662
		endloop
	endfacet
	facet normal 0 -1 0
		outer loop
			vertex -0.013157106935977936 0.014399999752640724 -0.0023928931914269924
			vertex -0.01343078538775444 0.014399999752640724 -0.0032950902823358774
			vertex -0.01340694073587656 0.014399999752640724 -0.0033902847208082676
		endloop
	endfacet
	facet normal 0 -1 0
		outer loop
			vertex -0.013157106935977936 0.014399999752640724 -0.0023928931914269924
			vertex -0.01344518456608057 0.014399999752640724 -0.003198017133399844
			vertex -0.01343078538775444 0.014399999752640724 -0.0032950902823358774
		endloop
	endfacet
	facet normal 0 -1 0
		outer loop
			vertex -0.013157106935977936 0.014399999752640724 -0.0023928931914269924
			vertex -0.013450000435113907 0.014399999752640724 -0.003100000089034438
			vertex -0.01344518456608057 0.014399999752640724 -0.003198017133399844
		endloop
	endfacet
	facet normal 0 -1 0
		outer loop
			vertex -0.013157106935977936 0.014399999752640724 -0.0023928931914269924
			vertex -0.01344518456608057 0.014399999752640724 -0.0030019828118383884
			vertex -0.013450000435113907 0.014399999752640724 -0.003100000089034438
		endloop
	endfacet
	facet normal 0 -1 0
		outer loop
			vertex -0.013157106935977936 0.014399999752640724 -0.0023928931914269924
			vertex -0.01343078538775444 0.014399999752640724 -0.002904909662902355
			vertex -0.01344518456608057 0.014399999752640724 -0.0030019828118383884
		endloop
	endfacet
	facet normal 0 -1 0
		outer loop
			vertex -0.013157106935977936 0.014399999752640724 -0.0023928931914269924
			vertex -0.01340694073587656 0.014399999752640724 -0.002809715224429965
			vertex -0.01343078538775444 0.014399999752640724 -0.002904909662902355
		endloop
	endfacet
	facet normal 0 -1 0
		outer loop
			vertex -0.013157106935977936 0.014399999752640724 -0.0023928931914269924
			vertex -0.013373879715800285 0.014399999752640724 -0.0027173166163265705
			vertex -0.01340694073587656 0.014399999752640724 -0.002809715224429965
		endloop
	endfacet
	facet normal 0 -1 0
		outer loop
			vertex -0.013157106935977936 0.014399999752640724 -0.0023928931914269924
			vertex -0.013331920839846134 0.014399999752640724 -0.0026286032516509295
			vertex -0.013373879715800285 0.014399999752640724 -0.0027173166163265705
		endloop
	endfacet
	facet normal 0 -1 0
		outer loop
			vertex -0.013157106935977936 0.014399999752640724 -0.0023928931914269924
			vertex -0.013281469233334064 0.014399999752640724 -0.002544429851695895
			vertex -0.013331920839846134 0.014399999752640724 -0.0026286032516509295
		endloop
	endfacet
	facet normal 0 -1 0
		outer loop
			vertex -0.013157106935977936 0.014399999752640724 -0.0023928931914269924
			vertex -0.013223010115325451 0.014399999752640724 -0.002465606667101383
			vertex -0.013281469233334064 0.014399999752640724 -0.002544429851695895
		endloop
	endfacet
	facet normal 0 -1 0
		outer loop
			vertex -0.013157106935977936 0.014399999752640724 -0.0023928931914269924
			vertex -0.013005570508539677 0.014399999752640724 -0.0022685304284095764
			vertex -0.013084392994642258 0.014399999752640724 -0.00232698954641819
		endloop
	endfacet
	facet normal 0 -1 0
		outer loop
			vertex -0.013157106935977936 0.014399999752640724 -0.0023928931914269924
			vertex -0.012921396642923355 0.014399999752640724 -0.0022180788218975067
			vertex -0.013005570508539677 0.014399999752640724 -0.0022685304284095764
		endloop
	endfacet
	facet normal 0 -1 0
		outer loop
			vertex -0.013157106935977936 0.014399999752640724 -0.0023928931914269924
			vertex -0.012832683511078358 0.014399999752640724 -0.002176120411604643
			vertex -0.012921396642923355 0.014399999752640724 -0.0022180788218975067
		endloop
	endfacet
	facet normal 0 -1 0
		outer loop
			vertex -0.013157106935977936 0.014399999752640724 -0.0023928931914269924
			vertex -0.012740285135805607 0.014399999752640724 -0.0021430596243590117
			vertex -0.012832683511078358 0.014399999752640724 -0.002176120411604643
		endloop
	endfacet
	facet normal 0 -1 0
		outer loop
			vertex -0.013157106935977936 0.014399999752640724 -0.0023928931914269924
			vertex -0.012645089998841286 0.014399999752640724 -0.002119214739650488
			vertex -0.012740285135805607 0.014399999752640724 -0.0021430596243590117
		endloop
	endfacet
	facet normal 0 -1 0
		outer loop
			vertex -0.013157106935977936 0.014399999752640724 -0.0023928931914269924
			vertex -0.01254801731556654 0.014399999752640724 -0.0021048153284937143
			vertex -0.012645089998841286 0.014399999752640724 -0.002119214739650488
		endloop
	endfacet
	facet normal 0 -1 0
		outer loop
			vertex -0.013157106935977936 0.014399999752640724 -0.0023928931914269924
			vertex -0.012450000271201134 0.014399999752640724 -0.002099999925121665
			vertex -0.01254801731556654 0.014399999752640724 -0.0021048153284937143
		endloop
	endfacet
	facet normal 0 -1 0
		outer loop
			vertex -0.013157106935977936 0.014399999752640724 -0.0023928931914269924
			vertex -0.012351983226835728 0.014399999752640724 -0.0021048153284937143
			vertex -0.012450000271201134 0.014399999752640724 -0.002099999925121665
		endloop
	endfacet
	facet normal 0 -1 0
		outer loop
			vertex -0.013157106935977936 0.014399999752640724 -0.0023928931914269924
			vertex -0.012254909612238407 0.014399999752640724 -0.002119214739650488
			vertex -0.012351983226835728 0.014399999752640724 -0.0021048153284937143
		endloop
	endfacet
	facet normal 0 -1 0
		outer loop
			vertex -0.013157106935977936 0.014399999752640724 -0.0023928931914269924
			vertex -0.01215971540659666 0.014399999752640724 -0.0021430596243590117
			vertex -0.012254909612238407 0.014399999752640724 -0.002119214739650488
		endloop
	endfacet
	facet normal 0 -1 0
		outer loop
			vertex -0.013157106935977936 0.014399999752640724 -0.0023928931914269924
			vertex -0.01206731703132391 0.014399999752640724 -0.002176120411604643
			vertex -0.01215971540659666 0.014399999752640724 -0.0021430596243590117
		endloop
	endfacet
	facet normal 0 -1 0
		outer loop
			vertex -0.013157106935977936 0.014399999752640724 -0.0023928931914269924
			vertex -0.011978602968156338 0.014399999752640724 -0.0022180788218975067
			vertex -0.01206731703132391 0.014399999752640724 -0.002176120411604643
		endloop
	endfacet
	facet normal 0 -1 0
		outer loop
			vertex -0.013157106935977936 0.014399999752640724 -0.0023928931914269924
			vertex -0.01189443003386259 0.014399999752640724 -0.0022685304284095764
			vertex -0.011978602968156338 0.014399999752640724 -0.0022180788218975067
		endloop
	endfacet
	facet normal 0 -1 0
		outer loop
			vertex -0.013157106935977936 0.014399999752640724 -0.0023928931914269924
			vertex -0.011815606616437435 0.014399999752640724 -0.00232698954641819
			vertex -0.01189443003386259 0.014399999752640724 -0.0022685304284095764
		endloop
	endfacet
	facet normal 0 -1 0
		outer loop
			vertex -0.013157106935977936 0.014399999752640724 -0.0023928931914269924
			vertex -0.011742893606424332 0.014399999752640724 -0.0023928931914269924
			vertex -0.011815606616437435 0.014399999752640724 -0.00232698954641819
		endloop
	endfacet
	facet normal 0 -1 0
		outer loop
			vertex -0.013157106935977936 0.014399999752640724 -0.0023928931914269924
			vertex -0.011676989495754242 0.014399999752640724 -0.002465606667101383
			vertex -0.011742893606424332 0.014399999752640724 -0.0023928931914269924
		endloop
	endfacet
	facet normal 0 -1 0
		outer loop
			vertex -0.013157106935977936 0.014399999752640724 -0.0023928931914269924
			vertex -0.011618530377745628 0.014399999752640724 -0.002544429851695895
			vertex -0.011676989495754242 0.014399999752640724 -0.002465606667101383
		endloop
	endfacet
	facet normal 0 -1 0
		outer loop
			vertex -0.013157106935977936 0.014399999752640724 -0.0023928931914269924
			vertex -0.011568078771233559 0.014399999752640724 -0.0026286032516509295
			vertex -0.011618530377745628 0.014399999752640724 -0.002544429851695895
		endloop
	endfacet
	facet normal 0 -1 0
		outer loop
			vertex -0.013157106935977936 0.014399999752640724 -0.0023928931914269924
			vertex -0.011526120826601982 0.014399999752640724 -0.0027173166163265705
			vertex -0.011568078771233559 0.014399999752640724 -0.0026286032516509295
		endloop
	endfacet
	facet normal 0 -1 0
		outer loop
			vertex -0.013157106935977936 0.014399999752640724 -0.0023928931914269924
			vertex -0.011493059806525707 0.014399999752640724 -0.002809715224429965
			vertex -0.011526120826601982 0.014399999752640724 -0.0027173166163265705
		endloop
	endfacet
	facet normal 0 -1 0
		outer loop
			vertex -0.013157106935977936 0.014399999752640724 -0.0023928931914269924
			vertex -0.011469215154647827 0.014399999752640724 -0.002904909662902355
			vertex -0.011493059806525707 0.014399999752640724 -0.002809715224429965
		endloop
	endfacet
	facet normal 0 -1 0
		outer loop
			vertex -0.013157106935977936 0.014399999752640724 -0.0023928931914269924
			vertex -0.011454815044999123 0.014399999752640724 -0.0030019828118383884
			vertex -0.011469215154647827 0.014399999752640724 -0.002904909662902355
		endloop
	endfacet
	facet normal 0 -1 0
		outer loop
			vertex -0.013157106935977936 0.014399999752640724 -0.0023928931914269924
			vertex -0.01145000010728836 0.014399999752640724 -0.003100000089034438
			vertex -0.011454815044999123 0.014399999752640724 -0.0030019828118383884
		endloop
	endfacet
	facet normal 0 -1 0
		outer loop
			vertex -0.01145000010728836 0.014399999752640724 0.0019000000320374966
			vertex -0.01145000010728836 0.014399999752640724 -0.003100000089034438
			vertex -0.011018562130630016 0.014399999752640724 0.001994606340304017
		endloop
	endfacet
	facet normal 0 -1 0
		outer loop
			vertex -0.011018562130630016 0.014399999752640724 0.001994606340304017
			vertex -0.01145000010728836 0.014399999752640724 -0.003100000089034438
			vertex -0.010581333190202713 0.014399999752640724 0.00205721752718091
		endloop
	endfacet
	facet normal 0 -1 0
		outer loop
			vertex -0.010581333190202713 0.014399999752640724 0.00205721752718091
			vertex -0.01145000010728836 0.014399999752640724 -0.003100000089034438
			vertex -0.010140682570636272 0.014399999752640724 0.0020874941255897284
		endloop
	endfacet
	facet normal 0 -1 0
		outer loop
			vertex -0.010140682570636272 0.014399999752640724 0.0020874941255897284
			vertex -0.01145000010728836 0.014399999752640724 -0.003100000089034438
			vertex -0.009698999114334583 0.014399999752640724 0.002085272455587983
		endloop
	endfacet
	facet normal 0 -1 0
		outer loop
			vertex -0.009698999114334583 0.014399999752640724 0.002085272455587983
			vertex -0.01145000010728836 0.014399999752640724 -0.003100000089034438
			vertex -0.009258675388991833 0.014399999752640724 0.002050564391538501
		endloop
	endfacet
	facet normal 0 -1 0
		outer loop
			vertex -0.009258675388991833 0.014399999752640724 0.002050564391538501
			vertex -0.01145000010728836 0.014399999752640724 -0.003100000089034438
			vertex -0.00882209837436676 0.014399999752640724 0.0019835580606013536
		endloop
	endfacet
	facet normal 0 -1 0
		outer loop
			vertex -0.00882209837436676 0.014399999752640724 0.0019835580606013536
			vertex -0.01145000010728836 0.014399999752640724 -0.003100000089034438
			vertex -0.00839163362979889 0.014399999752640724 0.001884616445749998
		endloop
	endfacet
	facet normal 0 -1 0
		outer loop
			vertex -0.00839163362979889 0.014399999752640724 0.001884616445749998
			vertex -0.01145000010728836 0.014399999752640724 -0.003100000089034438
			vertex -0.007969614118337631 0.014399999752640724 0.001754275755956769
		endloop
	endfacet
	facet normal 0 -1 0
		outer loop
			vertex -0.007969614118337631 0.014399999752640724 0.001754275755956769
			vertex -0.01145000010728836 0.014399999752640724 -0.003100000089034438
			vertex -0.007558326702564955 0.014399999752640724 0.0015932423993945122
		endloop
	endfacet
	facet normal 0 -1 0
		outer loop
			vertex -0.007558326702564955 0.014399999752640724 0.0015932423993945122
			vertex -0.01145000010728836 0.014399999752640724 -0.003100000089034438
			vertex -0.007160000037401915 0.014399999752640724 0.0014023890253156424
		endloop
	endfacet
	facet normal 0 -1 0
		outer loop
			vertex -0.007160000037401915 0.014399999752640724 0.0014023890253156424
			vertex -0.01145000010728836 0.014399999752640724 -0.003100000089034438
			vertex -0.006776792462915182 0.014399999752640724 0.00118274986743927
		endloop
	endfacet
	facet normal 0 -1 0
		outer loop
			vertex -0.006776792462915182 0.014399999752640724 0.00118274986743927
			vertex -0.01145000010728836 0.014399999752640724 -0.003100000089034438
			vertex -0.006410781294107437 0.014399999752640724 0.0009355151560157537
		endloop
	endfacet
	facet normal 0 -1 0
		outer loop
			vertex -0.006410781294107437 0.014399999752640724 0.0009355151560157537
			vertex -0.01145000010728836 0.014399999752640724 -0.003100000089034438
			vertex -0.006063949316740036 0.014399999752640724 0.0006620247731916606
		endloop
	endfacet
	facet normal 0 -1 0
		outer loop
			vertex -0.006063949316740036 0.014399999752640724 0.0006620247731916606
			vertex -0.01145000010728836 0.014399999752640724 -0.003100000089034438
			vertex -0.00573817640542984 0.014399999752640724 0.00036376071511767805
		endloop
	endfacet
	facet normal 0 -1 0
		outer loop
			vertex -0.00573817640542984 0.014399999752640724 0.00036376071511767805
			vertex -0.01145000010728836 0.014399999752640724 -0.003100000089034438
			vertex -0.00543522834777832 0.014399999752640724 0.00004233940489939414
		endloop
	endfacet
	facet normal 0 -1 0
		outer loop
			vertex -0.00543522834777832 0.014399999752640724 0.00004233940489939414
			vertex -0.01145000010728836 0.014399999752640724 -0.003100000089034438
			vertex -0.005156746134161949 0.014399999752640724 -0.0003004973696079105
		endloop
	endfacet
	facet normal 0 -1 0
		outer loop
			vertex -0.005156746134161949 0.014399999752640724 -0.0003004973696079105
			vertex -0.01145000010728836 0.014399999752640724 -0.003100000089034438
			vertex -0.004904239904135466 0.014399999752640724 -0.0006628917180933058
		endloop
	endfacet
	facet normal 0 -1 0
		outer loop
			vertex -0.004904239904135466 0.014399999752640724 -0.0006628917180933058
			vertex -0.01145000010728836 0.014399999752640724 -0.003100000089034438
			vertex -0.004679076839238405 0.014399999752640724 -0.0010428797686472535
		endloop
	endfacet
	facet normal 0 -1 0
		outer loop
			vertex -0.004679076839238405 0.014399999752640724 -0.0010428797686472535
			vertex -0.01145000010728836 0.014399999752640724 -0.003100000089034438
			vertex -0.004482477903366089 0.014399999752640724 -0.0014384024543687701
		endloop
	endfacet
	facet normal 0 -1 0
		outer loop
			vertex -0.012450000271201134 0.014399999752640724 -0.004100000020116568
			vertex -0.015946974977850914 0.014399999752640724 -0.004100000020116568
			vertex -0.01591670885682106 0.014399999752640724 -0.0045406511053442955
		endloop
	endfacet
	facet normal 0 -1 0
		outer loop
			vertex -0.012450000271201134 0.014399999752640724 -0.004100000020116568
			vertex -0.01591670885682106 0.014399999752640724 -0.0045406511053442955
			vertex -0.015854109078645706 0.014399999752640724 -0.004977881442755461
		endloop
	endfacet
	facet normal 0 -1 0
		outer loop
			vertex -0.012450000271201134 0.014399999752640724 -0.004100000020116568
			vertex -0.015854109078645706 0.014399999752640724 -0.004977881442755461
			vertex -0.015759514644742012 0.014399999752640724 -0.005409322213381529
		endloop
	endfacet
	facet normal 0 -1 0
		outer loop
			vertex -0.012450000271201134 0.014399999752640724 -0.004100000020116568
			vertex -0.015759514644742012 0.014399999752640724 -0.005409322213381529
			vertex -0.015289734117686749 0.014399999752640724 -0.006645757704973221
		endloop
	endfacet
	facet normal 0 -1 0
		outer loop
			vertex -0.015289734117686749 0.014399999752640724 -0.006645757704973221
			vertex -0.015759514644742012 0.014399999752640724 -0.005409322213381529
			vertex -0.015476560220122337 0.014399999752640724 -0.006245526019483805
		endloop
	endfacet
	facet normal 0 -1 0
		outer loop
			vertex -0.015476560220122337 0.014399999752640724 -0.006245526019483805
			vertex -0.015759514644742012 0.014399999752640724 -0.005409322213381529
			vertex -0.015633437782526016 0.014399999752640724 -0.005832635331898928
		endloop
	endfacet
	facet normal 0 -1 0
		outer loop
			vertex -0.012450000271201134 0.014399999752640724 -0.004100000020116568
			vertex -0.015289734117686749 0.014399999752640724 -0.006645757704973221
			vertex -0.014265499077737331 0.014399999752640724 -0.008077983744442463
		endloop
	endfacet
	facet normal 0 -1 0
		outer loop
			vertex -0.014265499077737331 0.014399999752640724 -0.008077983744442463
			vertex -0.015289734117686749 0.014399999752640724 -0.006645757704973221
			vertex -0.015073970891535282 0.014399999752640724 -0.007031160872429609
		endloop
	endfacet
	facet normal 0 -1 0
		outer loop
			vertex -0.014265499077737331 0.014399999752640724 -0.008077983744442463
			vertex -0.015073970891535282 0.014399999752640724 -0.007031160872429609
			vertex -0.014830440282821655 0.014399999752640724 -0.007399647030979395
		endloop
	endfacet
	facet normal 0 -1 0
		outer loop
			vertex -0.014265499077737331 0.014399999752640724 -0.008077983744442463
			vertex -0.014830440282821655 0.014399999752640724 -0.007399647030979395
			vertex -0.014560461975634098 0.014399999752640724 -0.007749219890683889
		endloop
	endfacet
	facet normal 1 0 0
		outer loop
			vertex 0.01145000010728836 0.0020000000949949026 0.0019000000320374966
			vertex 0.01145000010728836 0.014399999752640724 -0.003100000089034438
			vertex 0.01145000010728836 0.014399999752640724 0.0019000000320374966
		endloop
	endfacet
	facet normal 1 0 0
		outer loop
			vertex 0.01145000010728836 0.0020000000949949026 0.0019000000320374966
			vertex 0.01145000010728836 0.0020000000949949026 -0.003100000089034438
			vertex 0.01145000010728836 0.014399999752640724 -0.003100000089034438
		endloop
	endfacet
endsolid exported
